<?xml version="1.0" ?><svg height="60px" version="1.1" viewBox="0 0 44 60" width="44px" xmlns="http://www.w3.org/2000/svg" xmlns:xlink="http://www.w3.org/1999/xlink"><title/><desc/><defs/><g fill="none" fill-rule="evenodd" id="People" stroke="none" stroke-width="1"><g fill="#000000" id="Icon-15" transform="translate(-10.000000, 0.000000)"><path d="M30,31 C29.448,31 29,30.551 29,30 C29,29.449 29.448,29 30,29 C30.552,29 31,29.449 31,30 C31,30.551 30.552,31 30,31 M31,27.184 L31,19 C31,18.448 30.553,18 30,18 C29.447,18 29,18.448 29,19 L29,27.184 C27.839,27.599 27,28.698 27,30 C27,30.187 27.022,30.368 27.055,30.545 L17.375,36.134 C16.896,36.41 16.732,37.021 17.009,37.5 C17.194,37.821 17.53,38 17.876,38 C18.046,38 18.218,37.957 18.375,37.866 L28.063,32.272 C28.588,32.72 29.259,33 30,33 C31.654,33 33,31.654 33,30 C33,28.698 32.161,27.599 31,27.184 M54,27 L54,33 C54,33.552 53.553,34 53,34 C52.447,34 52,33.552 52,33 L52,27 C52,26.448 52.447,26 53,26 C53.553,26 54,26.448 54,27 M40.994,50.11 L39.994,59.11 C39.938,59.617 39.51,60 39,60 L21,60 C20.49,60 20.062,59.617 20.006,59.11 L19.006,50.11 C18.945,49.562 19.341,49.067 19.89,49.006 C20.445,48.941 20.934,49.341 20.994,49.89 L21.896,58 L24,58 L24,53 C24,52.448 24.447,52 25,52 C25.553,52 26,52.448 26,53 L26,58 L34,58 L34,53 C34,52.448 34.447,52 35,52 C35.553,52 36,52.448 36,53 L36,58 L38.104,58 L39.006,49.89 C39.066,49.341 39.57,48.946 40.11,49.006 C40.659,49.067 41.055,49.562 40.994,50.11 M19.006,9.89 L20.006,0.89 C20.062,0.383 20.49,0 21,0 L39,0 C39.51,0 39.938,0.383 39.994,0.89 L40.994,9.89 C41.055,10.438 40.659,10.933 40.11,10.994 C40.073,10.998 40.035,11 39.999,11 C39.496,11 39.063,10.622 39.006,10.11 L38.104,2 L36,2 L36,7 C36,7.552 35.553,8 35,8 C34.447,8 34,7.552 34,7 L34,2 L26,2 L26,7 C26,7.552 25.553,8 25,8 C24.447,8 24,7.552 24,7 L24,2 L21.896,2 L20.994,10.11 C20.934,10.659 20.434,11.058 19.89,10.994 C19.341,10.933 18.945,10.438 19.006,9.89 M39.845,45.051 L39.366,44.223 C39.089,43.744 38.477,43.58 38,43.856 C37.521,44.133 37.357,44.744 37.634,45.223 L38.11,46.047 C35.951,47.143 33.547,47.809 31,47.949 L31,45 C31,44.448 30.553,44 30,44 C29.447,44 29,44.448 29,45 L29,47.949 C26.453,47.809 24.049,47.143 21.89,46.047 L22.366,45.223 C22.643,44.744 22.479,44.133 22,43.856 C21.522,43.58 20.91,43.744 20.634,44.223 L20.155,45.051 C18.083,43.69 16.31,41.917 14.949,39.844 L15.777,39.366 C16.256,39.09 16.42,38.479 16.144,38 C15.866,37.521 15.253,37.357 14.777,37.634 L13.952,38.11 C12.857,35.952 12.191,33.547 12.051,31 L15,31 C15.553,31 16,30.552 16,30 C16,29.448 15.553,29 15,29 L12.051,29 C12.191,26.453 12.857,24.048 13.952,21.89 L14.777,22.366 C14.935,22.457 15.106,22.5 15.276,22.5 C15.622,22.5 15.958,22.321 16.144,22 C16.42,21.521 16.256,20.91 15.777,20.634 L14.949,20.156 C16.31,18.083 18.083,16.31 20.155,14.949 L20.634,15.777 C20.819,16.098 21.155,16.277 21.501,16.277 C21.671,16.277 21.843,16.234 22,16.144 C22.479,15.867 22.643,15.256 22.366,14.777 L21.89,13.953 C24.049,12.857 26.453,12.191 29,12.051 L29,15 C29,15.552 29.447,16 30,16 C30.553,16 31,15.552 31,15 L31,12.051 C33.547,12.191 35.951,12.857 38.11,13.953 L37.634,14.777 C37.357,15.256 37.521,15.867 38,16.144 C38.157,16.234 38.329,16.277 38.499,16.277 C38.845,16.277 39.181,16.098 39.366,15.777 L39.845,14.949 C41.917,16.31 43.69,18.083 45.051,20.156 L44.223,20.634 C43.744,20.91 43.58,21.521 43.856,22 C44.042,22.321 44.378,22.5 44.724,22.5 C44.894,22.5 45.065,22.457 45.223,22.366 L46.048,21.89 C47.143,24.048 47.809,26.453 47.949,29 L45,29 C44.447,29 44,29.448 44,30 C44,30.552 44.447,31 45,31 L47.949,31 C47.809,33.547 47.143,35.952 46.048,38.11 L45.223,37.634 C44.744,37.357 44.133,37.521 43.856,38 C43.58,38.479 43.744,39.09 44.223,39.366 L45.051,39.844 C43.69,41.917 41.917,43.69 39.845,45.051 M47.355,20.101 C47.341,20.068 47.34,20.032 47.321,20 C47.298,19.96 47.261,19.936 47.233,19.9 C45.502,16.957 43.044,14.499 40.1,12.767 C40.064,12.739 40.04,12.702 40,12.679 C39.968,12.66 39.933,12.659 39.899,12.645 C36.977,10.971 33.603,10 30,10 C26.397,10 23.023,10.971 20.101,12.645 C20.068,12.659 20.032,12.66 20,12.679 C19.96,12.702 19.936,12.739 19.9,12.767 C16.957,14.499 14.499,16.957 12.767,19.9 C12.739,19.936 12.702,19.96 12.679,20 C12.66,20.032 12.659,20.068 12.645,20.101 C10.971,23.023 10,26.397 10,30 C10,33.603 10.971,36.977 12.645,39.899 C12.659,39.932 12.66,39.968 12.679,40 C12.715,40.062 12.761,40.114 12.807,40.166 C14.536,43.08 16.979,45.514 19.9,47.233 C19.936,47.261 19.96,47.298 20,47.321 C20.045,47.347 20.093,47.361 20.14,47.379 C23.053,49.039 26.414,50 30,50 C33.586,50 36.947,49.039 39.86,47.379 C39.907,47.361 39.955,47.347 40,47.321 C40.04,47.298 40.064,47.261 40.1,47.233 C43.021,45.514 45.464,43.08 47.193,40.166 C47.239,40.114 47.285,40.062 47.321,40 C47.34,39.968 47.341,39.932 47.355,39.899 C49.029,36.977 50,33.603 50,30 C50,26.397 49.029,23.023 47.355,20.101" id="watch"/></g></g></svg>