<?xml version="1.0" ?><!DOCTYPE svg  PUBLIC '-//W3C//DTD SVG 1.1//EN'  'http://www.w3.org/Graphics/SVG/1.1/DTD/svg11.dtd'><svg enable-background="new 0 0 512 512" height="512px" id="travel_x5F_car" version="1.1" viewBox="0 0 512 512" width="512px" xml:space="preserve" xmlns="http://www.w3.org/2000/svg" xmlns:xlink="http://www.w3.org/1999/xlink"><g><path d="M508.308,360.822c-3.656-6.99-10.89-10.914-18.392-10.48c-2.145-2.902-5.142-5.045-8.65-6.143   c-4.373-1.37-9.018-0.953-13.077,1.17c-4.061,2.124-7.052,5.702-8.42,10.075c-1.038,3.312-1.05,6.778-0.074,10.028   c-4.874,5.453-6.137,13.58-2.554,20.434c3.225,6.16,9.525,9.689,16.039,9.689c2.82,0,5.68-0.661,8.346-2.057   c2.141-1.119,4.021-2.66,5.539-4.499c4.346,0.888,8.937,0.29,12.979-1.825c4.629-2.42,8.038-6.499,9.599-11.484   S510.729,365.451,508.308,360.822z M496.759,371.697c-0.484,1.542-1.539,2.805-2.973,3.556c-1.928,1.006-4.263,0.9-6.101-0.284   c-1.797-1.157-4.035-1.396-6.031-0.646c-2,0.751-3.526,2.406-4.115,4.46c-0.349,1.219-1.155,2.209-2.272,2.793   c-2.228,1.17-4.995,0.303-6.163-1.928c-1.167-2.232-0.301-4.998,1.894-6.146l0.201-0.098c1.876-0.915,3.222-2.647,3.648-4.69   c0.424-2.045-0.12-4.171-1.476-5.758c-0.186-0.219-0.345-0.449-0.47-0.69c-0.453-0.866-0.541-1.856-0.25-2.787   c0.291-0.932,0.928-1.694,1.796-2.147c0.529-0.276,1.107-0.418,1.688-0.418c0.367,0,0.735,0.057,1.097,0.169   c0.931,0.291,1.694,0.93,2.145,1.791c0.131,0.25,0.233,0.52,0.307,0.802c0.483,1.883,1.754,3.465,3.488,4.343   c1.732,0.875,3.759,0.967,5.564,0.241c2.888-1.157,6.161,0.053,7.608,2.82C497.095,368.514,497.241,370.152,496.759,371.697z"/><path d="M422.814,279.043c0.567,1.912,1.096,3.885,1.567,5.863c0.741,3.099,3.509,5.184,6.561,5.184   c0.52,0,1.047-0.062,1.574-0.187c3.625-0.866,5.862-4.509,4.996-8.134c-0.528-2.214-1.12-4.424-1.757-6.568   c-1.061-3.572-4.816-5.613-8.392-4.55C423.79,271.711,421.753,275.469,422.814,279.043z"/><path d="M377.738,221.453c10.693,7.15,19.883,15.523,27.313,24.884c2.294,2.89,4.452,5.918,6.415,9.002   c1.119,1.757,2.207,3.583,3.23,5.427c1.233,2.221,3.534,3.473,5.907,3.473c1.109,0,2.233-0.273,3.271-0.85   c3.26-1.811,4.435-5.92,2.624-9.179c-1.155-2.079-2.381-4.14-3.646-6.124c-2.212-3.475-4.645-6.889-7.229-10.142   c-8.302-10.459-18.522-19.782-30.381-27.713c-3.098-2.073-7.291-1.238-9.363,1.858   C373.807,215.188,374.639,219.381,377.738,221.453z"/><path d="M128.294,247.64c1.061,0.608,2.218,0.899,3.358,0.899c2.337,0,4.61-1.216,5.858-3.388c1.821-3.168,2.531-4.12,5.178-7.661   l0.211-0.281c6.746-9.029,14.986-17.013,24.495-23.729c3.045-2.15,3.77-6.362,1.619-9.408c-2.152-3.042-6.364-3.769-9.408-1.618   c-10.667,7.534-19.926,16.509-27.522,26.676l-0.211,0.282c-2.716,3.636-3.84,5.142-6.065,9.011   C123.949,241.655,125.063,245.781,128.294,247.64z"/><path d="M117.214,272.025c0.984,0.516,2.045,0.759,3.094,0.759c2.31,0,4.568-1.184,5.842-3.269c0.376-0.615,0.641-1.265,0.802-1.93   c0.241-0.592,0.787-1.889,2.005-4.643c1.507-3.411-0.034-7.396-3.443-8.904c-3.413-1.505-7.397,0.034-8.904,3.443   c-1.187,2.684-1.828,4.195-2.17,5.039C113.989,263.63,112.009,269.3,117.214,272.025z"/><path d="M247.677,224.781c-0.619-0.095-15.44-2.262-33.993,4.339c-16.91,6.015-40.412,20.746-56.353,56.768   c-0.924,2.088-0.73,4.501,0.516,6.414c1.246,1.914,3.374,3.067,5.657,3.067h83.148c3.729,0,6.75-3.021,6.75-6.75v-57.165   C253.402,228.121,250.971,225.288,247.677,224.781z M239.902,281.869h-65.568c21.474-39.426,52.764-43.971,65.568-44.051V281.869z"/><path d="M359.262,252.201c-16.209-14.848-44.998-31.726-90.097-27.813c-3.488,0.303-6.166,3.224-6.166,6.725v57.507   c0,3.729,3.021,6.75,6.75,6.75h107.979c2.231,0,4.32-1.104,5.577-2.949c1.257-1.844,1.521-4.191,0.704-6.269   C383.728,285.432,376.885,268.343,359.262,252.201z M276.499,281.869v-44.437c29.309-1.278,53.914,6.88,73.199,24.318   c7.873,7.119,13.339,14.527,16.824,20.118H276.499z"/><path d="M244.92,311.716h-17.322c-3.176,0-5.774,2.599-5.774,5.774s2.599,5.774,5.774,5.774h17.322   c3.176,0,5.774-2.599,5.774-5.774S248.096,311.716,244.92,311.716z"/><path d="M377.493,311.716H360.17c-3.176,0-5.773,2.599-5.773,5.774s2.598,5.774,5.773,5.774h17.323   c3.176,0,5.774-2.599,5.774-5.774S380.669,311.716,377.493,311.716z"/><path d="M449.105,327.801c-1.051-8.763-4.564-15.113-10.441-18.876c-5.668-3.63-11.963-3.744-16.182-3.225   c-11.082-38.198-35.914-71.283-67.008-87.72c-10.573-5.59-21.507-9.665-32.34-12.596h37.036c4.183,0,7.574-3.391,7.574-7.573   s-3.392-7.573-7.574-7.573h-13.823c1.332-2.517,2.095-5.379,2.095-8.418v-31.348c0-9.958-8.102-18.059-18.06-18.059h-17.729   c0.382-1.46,0.605-2.982,0.605-4.56V96.507c0-9.958-8.102-18.06-18.059-18.06h-8.848l3.383-3.116   c2.742-2.526,2.918-6.796,0.392-9.538c-2.527-2.744-6.796-2.918-9.538-0.392l-9.321,8.587l-9.177-8.559   c-2.727-2.543-6.995-2.394-9.541,0.333c-2.542,2.726-2.393,6.997,0.333,9.541l3.372,3.144h-8.805   c-9.957,0-18.059,8.102-18.059,18.06v31.348c0,1.577,0.224,3.1,0.605,4.56h-17.729c-9.959,0-18.061,8.101-18.061,18.059v31.348   c0,3.039,0.763,5.901,2.095,8.418h-13.822c-4.184,0-7.574,3.391-7.574,7.573s3.391,7.573,7.574,7.573h32.295   c-19.78,5.278-40.524,14.623-55.231,31.095c-6.752,7.563-11.844,16.069-16.768,24.295c-1.064,1.778-2.129,3.558-3.212,5.329   c-0.264,0.431-0.788,1.384-1.48,2.653c-3.231,5.932-5.582,9.898-7.018,11.839h-26.856c-30.902,0-57.322,21.041-67.595,50.521   c-4.402-0.18-11.396,0.427-17.187,5.031c-3.745,2.98-8.27,8.783-8.556,19.521c-0.234,8.822,2.316,15.615,7.584,20.193   c2.35,2.041,4.941,3.358,7.469,4.194c-1.131,1.606-1.8,3.558-1.8,5.661v1.836c0,5.449,4.459,9.908,9.908,9.908h18.098   c1.823,0.438,3.711,0.688,5.656,0.688h10.525c2.273,16.191,12.599,29.834,26.784,36.734H61.362c-3.728,0-6.75,3.021-6.75,6.75   s3.022,6.75,6.75,6.75h372.337c3.728,0,6.75-3.021,6.75-6.75s-3.022-6.75-6.75-6.75H362.75c14.186-6.9,24.511-20.543,26.785-36.734   h13.832c1.963,0,3.871-0.244,5.709-0.688h18.188c5.449,0,9.908-4.459,9.908-9.908v-0.619h3.992c3.728,0,6.75-3.021,6.75-6.75   v-21.359c0-3.729-3.022-6.75-6.75-6.75h-2.316c1.621-0.982,3.198-2.192,4.63-3.719   C446.749,344.865,450.383,338.465,449.105,327.801z M31.313,367.545c-1.408-0.311-2.854-0.876-4.003-1.873   c-2.075-1.803-3.066-5.048-2.943-9.644c0.117-4.419,1.27-7.541,3.422-9.28c1.302-1.051,2.961-1.621,4.594-1.907L31.313,367.545z    M313.259,145.914h17.124c2.471,0,4.56,2.088,4.56,4.559v8.924h-21.684V145.914z M313.259,172.896h21.684v8.924   c0,2.471-2.089,4.559-4.56,4.559h-17.124V172.896z M277.742,91.947H295.2c2.471,0,4.559,2.089,4.559,4.56v8.924h-22.017V91.947z    M277.742,118.931h22.017v8.924c0,2.471-2.088,4.56-4.559,4.56h-12.565h-4.893V118.931z M278.074,159.396v-8.924   c0-2.471,2.089-4.559,4.561-4.559H295.2h4.559v13.482H278.074z M299.759,172.896v13.482h-17.124c-2.472,0-4.561-2.088-4.561-4.559   v-8.924H299.759z M242.892,96.507c0-2.471,2.088-4.56,4.559-4.56h16.792v13.483h-21.351V96.507z M242.892,118.931h21.351v13.483   h-4.227H247.45c-2.471,0-4.559-2.089-4.559-4.56V118.931z M242.892,145.914h4.559h12.565c2.471,0,4.559,2.088,4.559,4.559v8.924   h-21.683V145.914z M242.892,172.896h21.683v8.924c0,2.471-2.088,4.559-4.559,4.559h-17.124V172.896z M207.707,150.473   c0-2.471,2.088-4.559,4.561-4.559h17.124v13.482h-21.685V150.473z M212.268,186.379c-2.473,0-4.561-2.088-4.561-4.559v-8.924   h21.685v13.482H212.268z M130.191,398.15c-2.518,5.225-7.848,8.84-14.037,8.84c-6.188,0-11.52-3.615-14.037-8.84   c-0.985-2.045-1.553-4.328-1.553-6.75c0-8.61,6.979-15.59,15.59-15.59s15.591,6.979,15.591,15.59   C131.745,393.822,131.177,396.105,130.191,398.15z M137.213,434.885c14.186-6.9,24.512-20.543,26.785-36.734H293.85   c2.273,16.191,12.599,29.834,26.784,36.734H137.213z M355.729,398.15c-2.518,5.225-7.849,8.84-14.037,8.84   s-11.52-3.615-14.037-8.84c-0.985-2.045-1.554-4.328-1.554-6.75c0-8.61,6.98-15.59,15.591-15.59s15.591,6.979,15.591,15.59   C357.283,393.822,356.715,396.105,355.729,398.15z M415.686,365.576c-0.052,2.18-0.126,4.223-0.211,6.098   c-0.028,0.599-0.089,1.188-0.182,1.763c-0.133,0.821-0.334,1.612-0.59,2.374h-19.84h-7.441   c-6.502-19.018-24.538-32.735-45.729-32.735c-21.192,0-39.229,13.718-45.729,32.735H161.885   c-6.502-19.018-24.538-32.735-45.729-32.735c-21.192,0-39.229,13.718-45.729,32.735H46.379c-0.542-1.566-0.85-3.264-0.85-5.044   v-12.394c0-35.442,26.323-64.277,58.68-64.277h29.268c5.326,0,8.62-4.483,16.463-18.882c0.536-0.985,0.936-1.731,1.143-2.071   c1.104-1.805,2.19-3.619,3.276-5.434c4.812-8.039,9.357-15.632,15.255-22.238c23.06-25.828,64.702-31.764,87.473-33.002   c24.435-1.328,60.248,0.619,92.08,17.445c32.881,17.383,58.916,57.69,64.786,100.299   C415.69,342.827,415.921,355.627,415.686,365.576z M434.414,373.436h-5.559c0.032-0.383,0.088-0.76,0.105-1.148   c0.094-2.055,0.174-4.305,0.228-6.711h5.226V373.436z M433.663,339.086c-1.134,1.228-2.693,2.035-4.266,2.555l-2.244-22.617   c1.484,0.11,3.015,0.477,4.278,1.301c2.29,1.491,3.726,4.547,4.269,9.082C436.227,333.797,435.541,337.053,433.663,339.086z"/><path d="M493.184,434.885h-31.353c-3.728,0-6.75,3.021-6.75,6.75s3.022,6.75,6.75,6.75h31.353c3.728,0,6.75-3.021,6.75-6.75   S496.911,434.885,493.184,434.885z"/><path d="M32.663,434.885H8.205c-3.729,0-6.75,3.021-6.75,6.75s3.021,6.75,6.75,6.75h24.458c3.729,0,6.75-3.021,6.75-6.75   S36.392,434.885,32.663,434.885z"/></g></svg>