<?xml version="1.0" ?><!DOCTYPE svg  PUBLIC '-//W3C//DTD SVG 1.1//EN'  'http://www.w3.org/Graphics/SVG/1.1/DTD/svg11.dtd'><svg enable-background="new 0 0 128 128" id="Layer_1" version="1.1" viewBox="0 0 128 128" xml:space="preserve" xmlns="http://www.w3.org/2000/svg" xmlns:xlink="http://www.w3.org/1999/xlink"><path d="M96,112H30.2c-2.1,0-4.2-1.3-4.2-3.4V53.8c0-2.1,2.1-3.8,4.2-3.8H96V112z" fill="#53AF80"/><path d="M96,112H30.2c-2.1,0-4.2-1.3-4.2-3.4V53.8  c0-2.1,2.1-3.8,4.2-3.8H96V112z" fill="none" stroke="#3D3D3D" stroke-miterlimit="10" stroke-width="2"/><path d="M101,18.9V91H40V18.9c0-2.1,1.2-3.9,3.3-3.9h54.8C100.2,15,101,16.8,101,18.9z" fill="#E2E2E2"/><path d="M101,18.9V91H40V18.9c0-2.1,1.2-3.9,3.3-3.9h54.8  C100.2,15,101,16.8,101,18.9z" fill="none" stroke="#3D3D3D" stroke-miterlimit="10" stroke-width="2"/><path d="M55.8,59c-4,0-7.2-3.5-7.2-7.5s3.2-7.5,7.2-7.5H59v15H55.8z" fill="#53AF80"/><path d="M55.8,59c-4,0-7.2-3.5-7.2-7.5s3.2-7.5,7.2-7.5H59  v15H55.8z" fill="none" stroke="#3D3D3D" stroke-miterlimit="10" stroke-width="2"/><circle cx="58.8" cy="51.3" fill="#8DCEA8" r="7.2"/><path d="M81.8,59c-4,0-7.2-3.5-7.2-7.5s3.2-7.5,7.2-7.5H85v15H81.8z" fill="#53AF80"/><path d="M81.8,59c-4,0-7.2-3.5-7.2-7.5s3.2-7.5,7.2-7.5H85  v15H81.8z" fill="none" stroke="#3D3D3D" stroke-miterlimit="10" stroke-width="2"/><circle cx="84.8" cy="51.3" fill="#8DCEA8" r="7.2"/><circle cx="84.8" cy="51.4" fill="none" r="7.5" stroke="#3D3D3D" stroke-miterlimit="10" stroke-width="2"/><circle cx="58.8" cy="51.4" fill="none" r="7.5" stroke="#3D3D3D" stroke-miterlimit="10" stroke-width="2"/><path d="M103.8,112H32V50h71.8c2.1,0,4.2,1.7,4.2,3.8v54.8C108,110.7,105.9,112,103.8,112z" fill="#FFFFFF"/><path d="M103.8,112H32V50h71.8c2.1,0,4.2,1.7,4.2,3.8v54.8  C108,110.7,105.9,112,103.8,112z" fill="none" stroke="#3D3D3D" stroke-miterlimit="10" stroke-width="2"/><polygon fill="#53AF80" points="89,75 77,75 77,63 62,63 62,75 51,75 51,90 62,90 62,101 77,101 77,90 89,90 "/><polygon fill="none" points="89,75 77,75 77,63 62,63 62,75 51,75 51,90   62,90 62,101 77,101 77,90 89,90 " stroke="#3D3D3D" stroke-miterlimit="10" stroke-width="2"/><path d="M55.8,38c-4,0-7.2-3.5-7.2-7.5s3.2-7.5,7.2-7.5H59v15H55.8z" fill="#53AF80"/><path d="M55.8,38c-4,0-7.2-3.5-7.2-7.5s3.2-7.5,7.2-7.5H59  v15H55.8z" fill="none" stroke="#3D3D3D" stroke-miterlimit="10" stroke-width="2"/><circle cx="58.8" cy="30.3" fill="#8DCEA8" r="7.2"/><path d="M81.8,38c-4,0-7.2-3.5-7.2-7.5s3.2-7.5,7.2-7.5H85v15H81.8z" fill="#53AF80"/><path d="M81.8,38c-4,0-7.2-3.5-7.2-7.5s3.2-7.5,7.2-7.5H85  v15H81.8z" fill="none" stroke="#3D3D3D" stroke-miterlimit="10" stroke-width="2"/><circle cx="84.8" cy="30.3" fill="#8DCEA8" r="7.2"/><circle cx="84.8" cy="30.5" fill="none" r="7.5" stroke="#3D3D3D" stroke-miterlimit="10" stroke-width="2"/><circle cx="58.8" cy="30.5" fill="none" r="7.5" stroke="#3D3D3D" stroke-miterlimit="10" stroke-width="2"/></svg>